<svg width="50" height="33" viewBox="0 0 50 33" fill="none" xmlns="http://www.w3.org/2000/svg">
<path fill-rule="evenodd" clip-rule="evenodd" d="M44.5435 10.0602L49.4752 14.5305C49.7878 14.8152 49.9757 15.2126 49.9978 15.6359C50.0199 16.0592 49.8745 16.4741 49.5932 16.7901L47.1274 19.5319L39.8316 12.9164L42.273 10.1787C42.5566 9.8647 42.9523 9.67604 43.3738 9.65384C43.7953 9.63165 44.2085 9.77771 44.5232 10.0602H44.5435ZM24.0764 19.299L29.3661 10.0929C29.4013 10.0309 29.4533 9.98019 29.516 9.94677C29.5788 9.91335 29.6498 9.89856 29.7206 9.90413C29.7914 9.90971 29.8592 9.93541 29.9161 9.97823C29.9729 10.0211 30.0164 10.0792 30.0416 10.146L31.9459 14.9718L27.3397 20.2062C26.6057 20.9461 26.1474 21.9171 26.0417 22.9562L25.6592 25.0483L25.5209 25.8083H7.841C7.74063 25.8083 7.64438 25.7683 7.57341 25.697C7.50245 25.6257 7.46258 25.5291 7.46258 25.4283V23.5487C7.46258 23.4479 7.50245 23.3512 7.57341 23.28C7.64438 23.2087 7.74063 23.1686 7.841 23.1686L9.92026 23.0665L12.1664 17.5379C12.1847 17.4914 12.212 17.4491 12.2468 17.4134C12.2816 17.3777 12.3232 17.3493 12.369 17.3299C12.4148 17.3105 12.4641 17.3005 12.5138 17.3004C12.5636 17.3004 12.6128 17.3102 12.6587 17.3295C12.7125 17.3505 12.7604 17.384 12.7986 17.4274C12.8369 17.4707 12.8642 17.5226 12.8784 17.5788L13.9689 21.4116H16.9352L19.8812 13.7868C19.9176 13.6932 19.9894 13.6179 20.0809 13.5773C20.1724 13.5367 20.2761 13.5342 20.3695 13.5702C20.445 13.5979 20.5084 13.6514 20.5485 13.7214L24.0764 19.299ZM4.53696 1.85787e-06H37.435C38.0299 -0.000538283 38.6191 0.117518 39.1684 0.347327C40.2716 0.810259 41.1488 1.69112 41.6098 2.79904C41.8386 3.35058 41.9562 3.94225 41.9556 4.53975V5.31204C41.7644 5.36107 41.5772 5.41828 41.39 5.48366H41.3534H41.3209H41.2842H41.2517H41.2151H41.1784H41.1459H41.1093H41.0767H41.0401H41.0076H40.975H40.9465H40.914H40.8855H40.8529H40.8244H40.7919H40.7675H40.7309H40.7064L40.6698 5.50409H40.6373H40.6007L40.5681 5.52452H40.5478L40.5152 5.54495L40.4826 5.56538H40.4501H40.4175L40.385 5.58581L40.2263 5.69614H40.1937H40.1693L40.1409 5.72066L40.1083 5.74109L40.0757 5.7656L40.0473 5.79012L40.0147 5.81464L39.9862 5.83915L39.9577 5.86367L39.9293 5.88819L39.9008 5.91271L39.7502 6.03938L39.7217 6.06389L39.6892 6.0925C39.5242 6.23839 39.368 6.39393 39.2213 6.55832L39.0381 6.76672V4.55609C38.9546 4.36017 38.823 4.18867 38.6557 4.05758C38.5898 3.89711 38.493 3.75132 38.3708 3.62859C38.2486 3.50587 38.1034 3.40864 37.9436 3.3425C37.7827 3.27472 37.6094 3.24132 37.435 3.24443H4.53696C4.36657 3.243 4.19768 3.27637 4.04054 3.3425C3.88074 3.40864 3.73556 3.50587 3.61335 3.62859C3.49114 3.75132 3.39432 3.89711 3.32846 4.05758C3.26261 4.21539 3.22938 4.38499 3.2308 4.55609V28.448C3.22972 28.6191 3.26293 28.7886 3.32846 28.9465C3.42887 29.1885 3.59838 29.3953 3.81561 29.5407C4.03284 29.6861 4.28808 29.7637 4.54916 29.7637H24.821L24.7356 30.3317V30.4053V30.4421V30.5524V30.9079V30.9406V31.0468V31.2838V31.9539V32.4279C24.7356 32.6282 24.7356 32.8161 24.7356 33H4.53696C3.63942 32.9972 2.76274 32.728 2.01706 32.2264C1.27137 31.7248 0.68996 31.013 0.345868 30.1805C0.117561 29.6317 1.20239e-06 29.0428 1.83737e-06 28.448V4.55609C-0.000536035 3.95859 0.117024 3.36692 0.345868 2.81538C0.57677 2.26355 0.911058 1.76139 1.33057 1.33618C1.75474 0.913908 2.25633 0.578109 2.80762 0.347327C3.35543 0.117526 3.94328 -0.000540175 4.53696 1.85787e-06ZM12.2681 7.55535C12.7924 7.55446 13.3089 7.68353 13.7716 7.93113C14.2344 8.17872 14.6291 8.53718 14.9209 8.9747C15.2126 9.41223 15.3923 9.9153 15.444 10.4393C15.4957 10.9633 15.4178 11.492 15.2173 11.9785C15.0168 12.465 14.6998 12.8943 14.2944 13.2283C13.8891 13.5623 13.4079 13.7906 12.8936 13.8931C12.3793 13.9956 11.8477 13.969 11.3461 13.8158C10.8444 13.6625 10.3882 13.3873 10.0179 13.0145V12.99C9.42851 12.3917 9.09791 11.5841 9.09791 10.7426C9.09791 9.90101 9.42851 9.09341 10.0179 8.49517L10.0423 8.47474C10.6355 7.88747 11.4352 7.55861 12.2681 7.55944V7.55535ZM37.8419 30.0171C35.9945 30.6954 34.5256 30.9978 32.6783 31.6761C28.7639 32.7426 28.8412 33.6415 29.3864 29.8577L30.5583 23.4179L38.5865 14.3016L45.8822 20.9131L37.8419 30.0212V30.0171ZM31.8075 24.5457L36.5967 28.8852L32.959 30.2377C30.1107 31.2838 30.1473 31.8722 30.7943 29.0364L31.8116 24.5416L31.8075 24.5457Z" fill="white"/>
</svg>
