<svg width="40" height="40" viewBox="0 0 40 40" fill="none" xmlns="http://www.w3.org/2000/svg">
<path d="M12.5538 33.2507C12.4422 32.7378 12.4212 32.225 12.491 31.7121C12.5607 31.1992 12.7351 30.7291 13.0141 30.3017C11.4239 29.8743 9.97326 29.1478 8.66209 28.1221C8.41102 27.9226 8.24364 27.6519 8.15994 27.31C8.07625 26.9681 8.10415 26.6405 8.24364 26.327C8.91317 24.8169 9.95932 23.1216 11.3821 21.2411C12.1632 20.1869 12.9443 19.2467 13.7254 18.4204C12.2469 17.7366 11.138 16.661 10.3987 15.1936C9.65942 13.7262 9.45717 12.1805 9.79193 10.5565C10.1267 8.93239 10.9218 7.60036 12.1771 6.56039C13.4325 5.52041 14.8762 5.00043 16.5082 5.00043C18.1402 5.00043 19.5839 5.52041 20.8392 6.56039C22.0946 7.60036 22.8897 8.93239 23.2245 10.5565C23.5592 12.1805 23.357 13.7262 22.6177 15.1936C21.8784 16.661 20.7695 17.7366 19.2909 18.4204C20.4347 19.7025 21.5088 21.0417 22.5131 22.4378H26.4884V20.8565C26.4884 20.1442 26.6698 19.4888 27.0324 18.8905C27.3951 18.2922 27.8833 17.8292 28.497 17.5015C29.1108 17.1738 29.7594 17.0385 30.4429 17.0955C31.1263 17.1525 31.7471 17.3946 32.305 17.822L32.9327 18.2922C32.9885 17.8078 33.0164 17.3377 33.0164 16.8818L32.9745 15.9843H33.0164C32.849 13.0495 31.9981 10.357 30.4638 7.90666C28.9852 5.4848 27.0324 3.5758 24.6054 2.17967C22.0946 0.726558 19.4025 0 16.5291 0H16.4873C13.6139 0 10.9218 0.726558 8.41102 2.17967C5.98396 3.5758 4.0172 5.47055 2.51075 7.86392C1.0043 10.3428 0.167383 13.0495 0 15.9843H0.0418459L0 16.8818C0 19.0472 0.397536 21.1343 1.19261 23.143C1.98768 25.1517 3.11054 26.9396 4.5612 28.5067C6.01186 30.0738 7.71359 31.3132 9.66639 32.225C10.587 32.6524 11.5495 32.9943 12.5538 33.2507ZM39.1259 28.5494H16.571C16.2083 28.464 15.9084 28.2788 15.6713 27.9938C15.4342 27.7089 15.3156 27.3813 15.3156 27.0109V26.9254C15.3156 26.498 15.462 26.1347 15.755 25.8355C16.0479 25.5364 16.4036 25.3868 16.822 25.3868H29.334V20.8565C29.334 20.5146 29.4804 20.2653 29.7733 20.1086C30.0663 19.9518 30.3522 19.9732 30.6312 20.1727L39.6699 26.9681C39.8094 27.0821 39.907 27.2317 39.9628 27.4169C40.0186 27.6021 40.0116 27.7802 39.9419 27.9511C39.8721 28.1221 39.7605 28.2645 39.6071 28.3785C39.4537 28.4925 39.2933 28.5494 39.1259 28.5494ZM39.9628 32.9943V33.0797C39.9628 33.5071 39.8163 33.8704 39.5234 34.1696C39.2305 34.4688 38.8748 34.6183 38.4564 34.6183H25.9444V39.1486C25.9444 39.4906 25.798 39.7399 25.5051 39.8966C25.2121 40.0533 24.9262 40.0319 24.6472 39.8325L15.6504 33.037C15.483 32.923 15.3784 32.7735 15.3365 32.5883C15.2947 32.4031 15.3016 32.225 15.3574 32.054C15.4132 31.8831 15.5178 31.7406 15.6713 31.6266C15.8247 31.5127 15.9851 31.4557 16.1525 31.4557H38.7074C39.0701 31.5412 39.37 31.7264 39.6071 32.0113C39.8442 32.2962 39.9628 32.6239 39.9628 32.9943Z" fill="white"/>
</svg>
